<?xml version="1.0" encoding="UTF-8" standalone="no"?>
<!-- Created with Inkscape (http://www.inkscape.org/) -->

<svg
   width="210mm"
   height="297mm"
   viewBox="0 0 210 297"
   version="1.1"
   id="svg1"
   inkscape:version="1.3.2 (1:1.3.2+202311252150+091e20ef0f)"
   sodipodi:docname="logo.svg"
   xmlns:inkscape="http://www.inkscape.org/namespaces/inkscape"
   xmlns:sodipodi="http://sodipodi.sourceforge.net/DTD/sodipodi-0.dtd"
   xmlns="http://www.w3.org/2000/svg"
   xmlns:svg="http://www.w3.org/2000/svg">
  <sodipodi:namedview
     id="namedview1"
     pagecolor="#505050"
     bordercolor="#eeeeee"
     borderopacity="1"
     inkscape:showpageshadow="0"
     inkscape:pageopacity="0"
     inkscape:pagecheckerboard="0"
     inkscape:deskcolor="#505050"
     inkscape:document-units="mm"
     inkscape:zoom="1.1187524"
     inkscape:cx="396.87064"
     inkscape:cy="628.37851"
     inkscape:window-width="1920"
     inkscape:window-height="1050"
     inkscape:window-x="1080"
     inkscape:window-y="399"
     inkscape:window-maximized="1"
     inkscape:current-layer="layer1" />
  <defs
     id="defs1">
    <rect
       x="478.83311"
       y="613.85404"
       width="157.30221"
       height="68.766308"
       id="rect28" />
    <rect
       x="589.21908"
       y="618.36186"
       width="95.309681"
       height="51.376541"
       id="rect21" />
    <rect
       x="116.14434"
       y="186.82418"
       width="585.91789"
       height="212.19566"
       id="rect1" />
  </defs>
  <g
     inkscape:label="Layer 1"
     inkscape:groupmode="layer"
     id="layer1">
    <path
       style="font-weight:bold;font-size:12px;line-height:1.25;font-family:'Lobster Two';-inkscape-font-specification:'Lobster Two Bold';text-align:center;letter-spacing:0px;word-spacing:0px;text-anchor:middle;white-space:pre"
       d="m 52.344954,133.15258 -2.17839,-5.00111 3.665756,4.05272 1.386184,-0.88387 -1.955792,-5.14305 3.21044,4.34305 1.457011,-0.92904 -5.264418,-7.11791 -1.457011,0.92903 2.307246,6.02903 -4.300518,-4.75806 c -0.321136,0.0767 -0.616466,0.19383 -0.909891,0.38093 -1.386184,0.88387 -1.880423,2.92107 -1.119131,4.11501 0.548387,0.86004 1.297552,0.852 2.076648,0.35523 -0.177719,-0.10016 -0.596511,-0.132 -1.119092,-0.95156 -0.548388,-0.86005 -0.506857,-1.75467 0.05479,-2.52552 l 3.336721,7.62125 z m 6.233646,-10.6595 1.808766,3.40092 c 0.23936,0.55228 0.220396,1.07884 -0.161015,1.2817 -0.275464,0.1465 -0.541447,0.0297 -0.823186,-0.50002 l -1.915827,-3.60222 -1.525647,0.81141 1.977809,3.71876 c 0.52967,0.99591 1.286588,1.42244 2.293091,0.88713 0.360223,-0.19158 0.797544,-0.51931 0.876027,-1.24063 l 0.309913,0.58271 c -0.57529,0.60498 -1.081612,1.39075 -0.670273,2.16417 0.394435,0.74163 1.293606,0.84785 2.109404,0.41397 0.656876,-0.34935 1.314899,-1.07988 0.51476,-2.58434 l -3.268175,-6.14497 z m 2.680468,7.10993 c -0.180313,-0.33903 0.0715,-0.78556 0.441202,-1.24043 l 0.163409,0.30725 c 0.332452,0.62509 0.331979,1.03309 0.07771,1.16833 -0.190706,0.10142 -0.535812,0.0403 -0.682316,-0.23515 z m 4.998218,-13.79634 c -0.148607,0.0489 -0.308289,0.10252 -0.474431,0.17178 -1.683567,0.70184 -2.80016,2.54542 -2.176816,4.04069 0.364772,0.87502 1.089419,1.05396 1.975507,0.68457 -0.144017,-0.096 -0.576975,-0.29251 -0.909426,-1.08999 -0.378624,-0.90824 -0.252309,-1.72795 0.302347,-2.36221 l 3.195217,7.66466 c 0.08399,-0.048 0.161524,-0.0803 0.250132,-0.11727 1.927241,-0.80342 4.681102,0.99978 6.076691,0.41799 0.830707,-0.3463 0.864675,-1.38754 0.587633,-2.05211 -0.0277,-0.0665 -0.05541,-0.13291 -0.09419,-0.19475 -0.23257,0.25297 -0.524231,0.42656 -0.801134,0.54199 -1.428816,0.59564 -3.293535,0.0209 -4.611646,0.25836 z m 3.025963,1.90691 1.40303,3.97145 c 0.371743,1.05227 1.0269,1.60988 2.192313,1.19817 0.610993,-0.21586 1.586634,-0.84052 1.184008,-2.77275 l -0.475217,0.16788 c 0.154603,0.58173 -0.01031,1.12361 -0.451586,1.2795 -0.441273,0.15589 -0.640328,0.0608 -0.864173,-0.57286 l -1.35906,-3.84699 z m -0.656094,-1.46088 c 0.175879,0.49784 0.711796,0.75395 1.209642,0.57808 0.497846,-0.17588 0.765272,-0.7158 0.589393,-1.21364 -0.175878,-0.49785 -0.727107,-0.76128 -1.224954,-0.5854 -0.497846,0.17588 -0.749959,0.72311 -0.574081,1.22096 z m 3.462685,-1.25324 0.480436,1.58478 -0.367485,0.1114 0.139257,0.45936 0.367484,-0.11141 1.082721,3.57149 c 0.323772,1.068 0.953039,1.65467 2.13588,1.29609 0.62013,-0.188 1.623025,-0.7679 1.3082,-2.71636 l -0.482324,0.14622 c 0.128135,0.58812 -0.06112,1.12198 -0.508991,1.25776 -0.447872,0.13577 -0.642421,0.0317 -0.83738,-0.61136 l -1.044425,-3.44516 0.700517,-0.21237 -0.139257,-0.45935 -0.700517,0.21236 -0.550064,-1.81445 z m 3.440821,-1.00602 0.400975,1.60672 -0.372573,0.093 0.116225,0.46572 0.372573,-0.093 0.903647,3.62094 c 0.270222,1.0828 0.869515,1.70005 2.068735,1.40078 0.628717,-0.15691 1.659227,-0.68618 1.441756,-2.6479 l -0.489003,0.12204 c 0.09871,0.59377 -0.116878,1.11755 -0.570952,1.23087 -0.454074,0.11332 -0.643204,-2.6e-4 -0.805919,-0.65227 l -0.871685,-3.49287 0.710218,-0.17724 -0.116225,-0.46572 -0.710218,0.17724 -0.459087,-1.83958 z m 3.438342,-1.33485 1.196145,6.25872 c 0.209495,1.09616 0.773478,1.74584 1.987505,1.51382 0.636481,-0.12164 1.69487,-0.5927 1.586999,-2.56348 l -0.495041,0.0946 c 0.06549,0.59834 -0.178942,1.10931 -0.638622,1.19716 -0.45968,0.0879 -0.642191,-0.0361 -0.768339,-0.69614 l -1.216418,-6.36481 z m 7.131989,6.08051 c -0.501079,0.0542 -0.964118,-0.20957 -1.159872,-1.23849 1.256887,-0.20833 2.175506,-1.20084 2.050365,-2.3581 -0.04645,-0.42949 -0.174486,-1.50194 -1.761236,-1.33036 -1.908871,0.20642 -2.218361,2.25557 -2.073867,3.59178 0.21674,2.00432 1.289535,2.66079 2.661536,2.51242 0.978297,-0.10579 1.638329,-0.58754 1.491256,-1.94761 -0.274069,0.36759 -0.754825,0.72133 -1.208182,0.77036 z m -0.04782,-3.56754 c 0.09031,0.83513 -0.393016,1.61159 -1.185905,1.75768 -0.07903,-1.06568 0.09731,-2.44865 0.65804,-2.50929 0.226679,-0.0245 0.462069,0.14316 0.527865,0.75161 z"
       id="text1"
       aria-label="My Little" />
    <g
       id="text2"
       style="font-weight:bold;font-size:36px;line-height:1.25;font-family:Montserrat;-inkscape-font-specification:'Montserrat Bold';text-align:center;letter-spacing:-3.175px;word-spacing:0px;text-anchor:middle;stroke:#000000;stroke-width:0.265"
       aria-label="Roboszpon">
      <path
         style="font-weight:normal;font-size:50px;font-family:eufm10;-inkscape-font-specification:eufm10;letter-spacing:-5.29167px"
         d="m 34.528864,178.39737 -1.133303,-0.11753 q -0.09055,-2.47394 0.246406,-4.88618 0.355905,-2.42763 1.587791,-3.42801 0.928652,-0.75413 4.761909,-0.0615 0.79994,-2.19067 0.642995,-4.35908 -0.137992,-2.1838 -0.998452,-4.09542 -0.860459,-1.91161 -2.058494,-3.58054 -1.194473,-1.70326 -3.133666,-4.09123 -2.323954,-2.86176 -4.664833,-4.38887 -1.149706,-0.79612 -2.403715,-1.25594 -1.250446,-0.49415 -2.555461,-0.6295 -1.301454,-0.16968 -2.640941,0.19472 -1.335927,0.33006 -2.359339,1.16115 -0.890748,0.72334 -1.439345,1.8293 -0.548596,1.10595 -0.513371,2.27245 0.03523,1.1665 0.743185,2.0383 1.000378,1.23188 4.55419,1.77401 3.543127,0.64515 4.497333,1.82018 1.185062,1.45931 0.977212,3.79816 -0.204289,2.30451 -1.062359,4.88834 l -1.307433,0.0553 q 0.508405,-1.38782 0.502817,-2.67274 -0.0056,-1.28492 -0.7905,-2.25147 -0.384761,-0.4738 -3.815319,-1.36762 -3.437682,-0.82513 -4.176422,-1.73483 -1.200453,-1.47827 -1.531528,-3.47382 -0.331075,-1.99556 0.102926,-4.17211 0.437563,-2.21089 1.461236,-4.04859 1.027234,-1.87205 2.44864,-3.02633 1.516167,-1.23123 3.43121,-1.62272 1.915043,-0.3915 3.866587,0.0365 1.955104,0.39368 3.667263,1.4564 l -0.178705,-0.45243 q 0.09339,-3.91276 0.850845,-6.69793 0.757461,-2.78517 2.993806,-4.60124 1.610927,-1.30819 3.0556,-0.84596 1.444673,0.46224 3.084455,2.05549 0.26876,0.2535 0.944795,0.93107 0.676035,0.67757 1.169802,0.93705 0.49733,0.22513 1.080008,0.12936 0.567289,-0.11473 1.325372,-0.73034 0.625419,-0.50789 1.101639,-1.08331 l 0.943781,0.27144 q -2.929956,4.98969 -4.132234,10.55775 1.781496,-1.4467 4.656855,-1.39148 0.622741,0.6894 1.556851,1.7235 0.93411,1.0341 2.133419,2.35604 1.202871,1.28759 1.97481,2.04453 0.756549,0.73799 1.17807,1.02469 3.720297,2.45119 4.74371,1.62011 0.265329,-0.21547 1.593509,-2.6464 l 0.492494,0.60646 -1.950197,8.09389 -6.161033,-2.5134 q -0.685446,-0.92153 -1.478625,-1.97573 -0.793178,-1.05419 -1.285672,-1.66065 -1.739117,-2.14159 -2.932577,-3.18523 -1.19346,-1.04364 -2.76851,-1.08549 -1.575049,-0.0419 -3.527114,1.54335 -1.212933,0.98499 -3.032593,3.46909 l -0.13737,-0.0143 q 1.605179,2.59631 2.665583,5.2576 1.045014,2.64235 1.316685,5.37805 -0.486152,2.3447 -0.776673,3.80718 -0.27157,1.44709 -0.550262,2.96287 -0.294083,1.49682 -0.738769,3.7764 -1.717125,-0.17808 -2.864675,-0.15825 -1.128597,0.004 -1.659255,0.43538 -1.629879,1.32358 -1.595044,4 z m 3.531211,-26.51813 2.507031,-4.4261 q 3.411404,-7.45637 3.42565,-7.59374 -0.812521,0.47112 -1.407029,0.5136 -0.594507,0.0425 -1.134446,-0.27386 -0.539939,-0.31633 -1.188755,-0.92166 -0.645254,-0.63966 -0.994528,-0.95358 -2.978879,-2.73877 -4.817231,-1.2459 -1.118173,0.90803 -1.385036,2.4771 -0.263303,1.53473 -0.02215,3.22591 0.24115,1.69118 0.665842,3.45346 l 0.01653,0.17528 q 0.906891,0.96185 1.337823,1.49251 1.862241,2.2932 2.996297,4.07698 z m 25.017092,0.81178 -0.504761,-1.42703 q -2.100456,-5.93829 -3.623286,-12.806 3.185438,-3.58688 6.332077,-8.45486 4.391257,1.13997 8.066383,0.69461 1.288536,2.91075 2.118949,5.25844 1.823651,5.15573 2.494762,10.2012 -1.328732,1.66122 -2.106773,2.60973 -0.763166,0.91735 -1.974302,2.25212 -1.18812,1.32662 -2.151701,2.26307 -0.955441,0.95947 -2.429309,2.28358 -2.660485,-1.07886 -3.805188,-1.60623 -1.144702,-0.52738 -2.416851,-1.26863 z m 3.130961,-4.03375 q 1.646044,0.91976 3.619648,1.59417 1.99662,0.66628 3.147452,0.25921 0.2762,-0.0977 0.701955,-1.31004 0.525964,-1.22189 0.456007,-2.51786 -0.04694,-1.30411 -0.427371,-3.11177 -0.413299,-2.33986 -1.41468,-5.17091 -0.659445,-1.86434 -1.473273,-3.72588 -0.968106,0.26475 -2.216634,0.39561 -1.248527,0.13087 -2.34408,0.18173 -1.080677,0.0197 -3.189263,-0.0113 -0.631196,1.80293 -0.369768,3.85986 0.284446,2.04878 1.106717,4.37346 0.895544,2.53183 2.40329,5.18377 z"
         id="path21" />
      <path
         style="font-weight:normal;font-size:40px;font-family:eufm10;-inkscape-font-specification:eufm10;letter-spacing:-3.70417px"
         d="m 81.968859,147.06032 q 0.01303,-1.78885 -0.291682,-4.01632 -0.304713,-2.22747 -0.876291,-5.37918 -0.568093,-3.1325 -1.038697,-5.50853 -0.454872,-2.39874 -0.949971,-4.69093 -0.495099,-2.2922 -0.868215,-3.91177 l 0.64474,-0.27572 1.212834,2.85677 0.279602,-0.2095 4.114172,-4.2397 0.759753,0.35846 -0.987567,1.23114 q -1.391336,1.74107 -1.488405,3.94215 -0.09707,2.20109 0.436172,5.14141 0.198658,1.09541 0.545683,2.46166 l 0.209604,0.0612 q 2.878762,-3.49955 4.755721,-5.18974 2.427822,0.9095 5.021732,1.53082 0.522981,2.44593 0.74255,3.65665 0.871309,4.80445 0.811891,8.74549 -4.442567,4.18015 -8.023134,6.65569 -0.579823,-0.35139 -1.561329,-0.94753 -0.981506,-0.59615 -1.697547,-1.04194 -0.700308,-0.46849 -1.751616,-1.23062 z m 3.220804,-2.70804 q 0.499466,0.34612 1.475695,1.02262 0.995447,0.67301 1.884448,1.08743 0.889,0.41442 1.427098,0.31684 0.999324,-0.18124 1.502962,-1.34446 0.522855,-1.16672 0.575819,-2.40701 0.08811,-1.70322 -0.344058,-4.08622 -0.505359,-2.78658 -1.056515,-4.73116 -0.913495,-0.33058 -3.56685,-0.84187 -2.194802,1.46993 -3.454903,2.73064 z"
         id="path22" />
      <path
         style="font-weight:normal;font-size:38px;font-family:eufm10;-inkscape-font-specification:eufm10;word-spacing:-0.981604px"
         d="m 97.988616,144.63177 -0.07179,-1.14815 q -0.298754,-4.77777 0.01822,-10.1146 3.075179,-1.95843 6.388759,-4.86131 2.97228,1.7476 5.75123,2.18733 0.33572,2.39583 0.45383,4.28472 0.25939,4.14815 -0.30069,7.97572 -1.3171,0.93754 -2.08329,1.46881 -0.74883,0.5116 -1.912,1.23502 -1.14466,0.72225 -2.04395,1.20608 -0.89814,0.50234 -2.25113,1.16326 -1.71995,-1.34254 -2.446824,-1.96636 -0.726872,-0.62383 -1.50236,-1.43052 z m 3.128414,-2.29639 q 1.0116,1.01502 2.31371,1.91891 1.32064,0.90275 2.24656,0.84485 0.22222,-0.0139 0.78586,-0.81137 0.63887,-0.78359 0.85759,-1.7454 0.23724,-0.96297 0.33558,-2.36344 0.18513,-1.79631 0.0427,-4.07408 -0.0938,-1.5 -0.30102,-3.03009 -0.76273,-0.008 -1.70255,-0.17241 -0.93982,-0.16432 -1.75117,-0.35527 -0.79399,-0.21062 -2.32873,-0.67238 -0.83677,1.18637 -1.074,2.74425 -0.2187,1.55672 -0.10175,3.42709 0.12738,2.03704 0.67722,4.28934 z"
         id="path23" />
      <path
         style="font-weight:normal;font-family:eufm10;-inkscape-font-specification:eufm10"
         d="m 110.64337,145.99713 -0.32295,-0.48218 q 0.32442,-0.34418 0.63006,-0.63603 0.28807,-0.29227 0.63007,-0.63604 l 1.09589,-1.01211 q 0.89772,-0.80569 2.42661,-0.77043 1.37073,0.0316 2.58263,0.85078 l 2.87262,2.00036 q 0.0687,0.0719 0.2444,0.076 0.29875,0.007 0.49232,-0.76229 0.21114,-0.76877 0.30332,-1.71612 0.10975,-0.94694 0.11907,-1.35113 0.049,-2.12638 -0.363,-2.55787 -0.77257,-0.80904 -1.21191,-0.81918 -0.80838,-0.0186 -1.44912,0.31824 l -3.71946,1.93625 q -0.56412,-0.69874 -1.35441,-2.26425 l 0.0231,-1.00169 0.0385,-1.66948 q 0.0405,-1.75734 0.0955,-2.61763 l 5.60277,-3.5456 q 0.17289,0.12707 1.22988,0.80201 1.07496,0.65777 1.4866,1.10683 0.29145,0.32321 1.04711,0.34064 0.5272,0.0122 1.13321,-0.34311 0.62399,-0.37243 1.55523,-1.10701 l 0.14155,0.72415 -3.38623,2.73516 q -1.40344,-0.13786 -2.69618,-0.50174 -1.29233,-0.38146 -2.99872,-1.10654 -0.2909,0.41527 -0.39214,0.99317 -0.10084,0.56033 -0.12029,1.40385 -0.0211,0.91382 0.19658,2.14964 0.23524,1.23622 0.86788,1.25081 0.43934,0.0101 0.61669,-0.0561 l 4.47471,-1.90125 q 0.76635,0.31658 1.98975,1.39976 0.0726,1.42588 0.0398,2.84933 -0.062,2.68874 -0.69056,4.78418 -3.56671,1.41229 -5.81257,2.73195 -2.94144,-2.82833 -4.5582,-2.86561 -1.30043,-0.03 -2.86012,1.27033 z"
         id="path24" />
      <path
         style="font-weight:normal;font-size:34px;font-family:eufm10;-inkscape-font-specification:eufm10"
         d="m 123.12708,150.52401 q 2.42154,-3.66278 7.99078,-8.31221 -2.06784,-1.17221 -3.62847,-1.43578 l 0.0332,-0.39706 2.65153,-2.02763 q 0.62462,-0.4976 0.95833,-0.90288 0.35024,-0.4039 0.39445,-0.93331 0.047,-0.5625 -0.23696,-1.15262 -0.26599,-0.60528 -0.76363,-1.03 -0.47971,-0.43987 -1.02566,-0.48545 -0.62867,-0.0525 -1.32773,0.33894 -0.69905,0.39144 -1.94965,1.20329 l -0.32943,-0.44399 q 2.68879,-2.27441 5.2975,-3.78917 1.17453,0.6978 2.20562,1.71681 1.04764,1.02039 0.96615,1.99648 -0.0525,0.62867 -0.61508,1.18144 l -2.79917,2.79829 q 2.23193,1.00265 3.45745,1.88796 0.32093,1.94262 0.0999,4.58966 -0.20719,2.4816 -1.272,5.45801 l -4.97347,3.4997 q -1.0919,-0.0912 -2.2513,-0.57113 -1.16078,-0.46342 -1.95891,-1.27972 -0.79813,-0.81631 -0.92342,-1.90963 z m 2.78514,-1.23348 q -0.0912,1.0919 1.13158,2.0103 1.22137,0.93494 2.41254,1.03439 1.25734,0.10498 1.74431,-1.73687 0.5035,-1.84046 0.68307,-3.99118 0.17542,-2.10109 -0.26825,-3.77075 -2.10686,1.49003 -3.84979,3.21035 -1.72639,1.72171 -1.85346,3.24376 z"
         id="path25" />
      <path
         style="font-weight:normal;font-size:32px;font-family:eufm10;-inkscape-font-specification:eufm10"
         d="m 135.34653,154.08172 q 1.09783,-5.87366 1.37234,-7.85473 -1.20722,-0.16728 -2.1283,0.44648 l -0.2783,-0.49602 q 2.16364,-1.49846 2.66181,-1.79224 l 1.08088,-7.80047 -1.01821,-1.98668 q -0.12689,-0.22265 -0.0947,-0.4548 0.0558,-0.40241 0.6011,-1.03668 0.56297,-0.64761 1.23213,-1.26473 0.68678,-0.63046 1.32545,-1.14138 l 0.40595,0.37174 q -0.66702,0.60164 -0.76352,1.29811 -0.15871,1.14531 1.08597,2.86366 l -0.21417,1.09029 q 1.35826,-0.69515 2.54414,-1.39841 1.20135,-0.70112 2.43795,-1.4289 1.334,1.41524 3.44475,2.5753 -0.14715,2.31421 -0.43239,4.37266 -0.29381,2.12037 -0.62136,3.57354 -0.32541,1.43769 -0.9832,2.65581 l -4.74089,2.90806 q -1.51208,-1.72385 -3.20048,-2.28907 -0.47611,3.43592 -0.72759,6.16158 l -2.56792,1.00076 z m 4.0567,-9.01287 q 1.12983,0.15655 2.12437,0.72027 0.99454,0.56371 2.51717,1.64228 0.55345,-0.80667 0.88333,-1.70741 0.33203,-0.91623 0.52047,-1.8208 0.18844,-0.90457 0.37287,-2.2356 0.20159,-1.45485 0.34353,-3.95907 -0.74691,-0.5294 -2.62718,-1.53134 -1.41299,0.29321 -3.04202,1.23478 z"
         id="path26" />
      <path
         style="font-weight:normal;font-size:30px;font-family:eufm10;-inkscape-font-specification:eufm10"
         d="m 148.83194,147.41413 0.17281,-0.89162 q 0.71909,-3.71025 2.01955,-7.72562 2.73829,-0.88678 5.84602,-2.44801 1.92478,1.92483 3.96117,2.8119 -0.21852,1.89738 -0.50282,3.36422 -0.62432,3.22131 -1.81128,6.03515 -1.19239,0.45527 -1.88324,0.70932 -0.67367,0.24246 -1.70598,0.56462 -1.01792,0.32495 -1.80107,0.51635 -0.78593,0.20578 -1.9509,0.44255 -1.04811,-1.36697 -1.47986,-1.98781 -0.43175,-0.62084 -0.8644,-1.39105 z m 2.84598,-1.13449 q 0.57177,0.97623 1.38756,1.92515 0.83018,0.95172 1.54922,1.09108 0.17257,0.0334 0.76141,-0.4642 0.64358,-0.4721 1.00144,-1.16372 0.37224,-0.68883 0.72508,-1.73952 0.49767,-1.33596 0.84049,-3.10481 0.22576,-1.16484 0.37081,-2.37518 -0.58125,-0.15741 -1.26685,-0.46934 -0.68559,-0.31193 -1.26774,-0.61873 -0.56497,-0.31839 -1.6462,-0.97558 -0.87468,0.74066 -1.36487,1.8841 -0.47581,1.14623 -0.75732,2.59869 -0.30659,1.58189 -0.33303,3.41206 z"
         id="path27" />
      <path
         style="font-weight:normal;font-size:28px;font-family:eufm10;-inkscape-font-specification:eufm10"
         d="m 160.30769,150.44121 q 0.64041,-1.46174 1.32817,-4.26332 0.39441,-1.60659 0.95314,-4.3413 l -0.48762,-0.8236 -1.0696,0.34276 -0.28702,-0.43648 3.43115,-1.76207 q 0.34411,0.60535 1.1574,1.59337 l -0.38463,1.56676 4.63727,-1.97279 q 1.22935,1.35764 2.71907,2.34278 -0.55398,1.51111 -1.2939,4.52513 -0.19533,0.85303 -0.42326,1.83883 -0.22793,0.98581 -0.3518,1.49035 0.0436,0.10925 0.16475,0.53317 0.12117,0.42393 0.24489,0.66547 0.14025,0.23152 0.36597,0.28693 0.0531,0.013 0.28487,-0.0708 l 1.06308,-0.31622 -0.074,0.53087 -3.95358,2.11247 -0.93973,-2.65209 q 0.5419,-1.23251 1.09929,-3.50299 0.55412,-2.2572 0.9296,-4.41747 -0.82561,-0.76579 -2.39658,-1.36263 l -2.25193,0.68602 -1.38206,5.62971 q -0.15972,0.65061 -0.0928,0.77964 l 0.68712,1.73133 -2.83558,1.45779 q -0.29991,-1.12946 -0.84161,-2.19158 z"
         id="path28" />
    </g>
    <path
       d="m 91.594442,171.01977 q 0.0855,0.27291 -0.37352,0.64731 -0.44463,0.34683 -0.80152,0.45867 -0.084,0.0263 -0.74541,0.0491 l -0.76959,1.00198 q -0.5703,0.75509 -1.96747,1.44653 -1.37617,0.68486 -2.67776,1.09274 l -1.51152,0.47367 q -1.36456,0.42762 -2.93181,0.13488 -1.57383,-0.31373 -2.81081,-1.17106 -0.37817,-0.25037 -0.41764,-0.37633 -0.0592,-0.18894 0.23189,-0.51071 0.2911,-0.32177 0.50103,-0.38756 0.10497,-0.0329 0.32555,0.0824 0.22057,0.11532 0.49504,0.32903 l 0.28887,0.18613 q 1.0728,0.70128 2.51003,0.87338 1.45822,0.16552 2.69682,-0.22263 4.30364,-1.34864 5.05349,-2.4136 0.42867,-0.61848 0.20499,-1.33226 -0.0263,-0.084 -0.0645,-0.27949 -0.0238,-0.22309 -0.0567,-0.32806 -0.30262,-0.96569 -1.26106,-1.44921 -0.96502,-0.50451 -2.187,-0.65184 -1.20097,-0.15391 -2.41637,-0.28025 -1.22197,-0.14733 -2.27096,-0.62553 -1.03458,-0.50577 -1.42776,-1.46614 -2.94062,0.6218 -4.92715,1.19821 -0.0147,-0.34121 0.28297,-0.64199 0.2911,-0.32177 0.64799,-0.43361 0.042,-0.0132 3.69106,-0.94918 0.0248,-0.21526 -0.0413,-0.79398 -0.0727,-0.59971 -0.0689,-0.80839 0.0317,-1.37018 0.86149,-2.62157 0.82318,-1.27238 2.09719,-1.69467 0.18894,-0.0592 0.58782,-0.18421 0.39229,-0.14599 0.60222,-0.21177 0.60881,-0.19079 0.99985,-0.26722 0.40545,-0.104 1.01832,-0.13467 0.60629,-0.0517 1.01204,0.21312 0.42016,0.23721 0.59121,0.78303 0.35525,1.13364 0.11456,2.13127 -0.22628,0.97005 -0.94885,1.68064 -0.72915,0.68959 -1.61465,1.17458 -0.86449,0.4784 -1.93515,0.81392 -1.32258,0.41446 -1.65722,0.45016 0.58589,0.69248 1.65839,1.02498 1.0935,0.32592 2.21176,0.43659 1.13267,0.0831 2.22211,0.24891 1.10384,0.13823 1.97048,0.69663 0.86663,0.5584 1.18899,1.58707 0.0263,0.084 0.058,0.2585 0.0251,0.15353 0.0514,0.23751 0.11184,0.35688 0.47028,0.54427 0.37943,0.18082 0.73632,0.069 0.063,-0.0197 0.18236,-0.0802 0.11938,-0.0605 0.18236,-0.0802 0.10497,-0.0329 0.13786,0.0721 z m -5.89816,-10.14025 q -0.15131,-0.48285 -0.23935,-0.61664 -0.54012,-0.91432 -3.08032,-0.1183 -1.59549,0.49999 -1.91416,0.80735 -0.68717,0.67643 -0.7098,1.92849 -0.0226,1.25206 0.33263,2.3857 1.4526,-0.29382 3.13207,-0.82012 1.5745,-0.49341 2.24976,-1.28139 0.68968,-0.81556 0.22917,-2.28509 z m 14.324908,9.39574 q -0.575018,0.22092 -1.124638,0.0785 -0.52908,-0.15025 -0.87797,-0.62898 -0.70822,1.59188 -1.98149,2.08104 -0.86254,0.33137 -1.52586,0.13842 -0.66332,-0.19296 -1.31538,-0.90872 -0.63153,-0.72366 -0.8051,-1.17546 -0.8347,1.87613 -1.59455,2.16805 -0.0205,0.008 -0.0616,0.0237 -0.0695,0.003 -0.09,0.011 -0.0457,-0.24169 0.43313,-0.897 0.47095,-0.67585 0.50437,-1.32502 0.0683,-1.11036 -0.60693,-3.11344 -0.082,-0.27486 0.13134,-0.63965 0.20549,-0.38532 0.493,-0.49578 l 0.14689,0.0143 q 0.10106,0.079 0.36931,0.77725 0.26825,0.69825 0.64069,1.54501 0.38509,0.81833 0.88864,1.63829 0.51619,0.79153 1.27895,1.18196 0.7754,0.362 1.6174,0.0385 1.29381,-0.49705 0.38196,-3.42265 -0.69568,-2.30161 -0.80614,-2.58912 -0.10256,-0.26698 0.10292,-0.6523 0.22602,-0.39321 0.51353,-0.50367 l 0.14689,0.0143 q 0.0726,0.0664 0.0884,0.10744 l 0.44183,1.15005 q 0.18146,0.47234 0.43381,1.43593 0.24447,0.94306 0.41804,1.39487 0.55228,1.43756 1.57575,1.58643 0.0568,0.0253 0.687098,-0.0519 -0.074,-0.56075 0.26269,-1.2793 0.33671,-0.71855 0.82959,-0.9079 0.14375,-0.0552 0.1832,0.0475 0.0395,0.10268 -0.0238,0.24481 -0.0506,0.11371 -0.15489,0.27162 -0.10431,0.15791 -0.1296,0.21476 -0.0506,0.11371 -0.0855,0.57491 -0.17428,1.38674 -1.38594,1.85223 z m 0.007,-13.86926 0.0194,0.0395 q 0.0968,0.19758 -0.142348,0.55966 -0.23911,0.36208 -0.43669,0.45884 -0.0198,0.01 -0.0593,0.029 l -0.0492,-4e-4 -0.10766,-0.0698 q -0.0274,-0.25604 0.18186,-0.57901 0.20928,-0.32297 0.42661,-0.42941 0.0198,-0.01 0.167328,-0.008 z m 4.95239,11.56221 q -0.84958,0.41609 -1.39753,0.0476 -0.53788,-0.39799 -0.99268,-1.32659 -0.15483,-0.31613 -0.2407,-0.64152 -0.19154,0.55925 -0.62017,1.23462 -0.40887,0.66569 -0.79394,0.82979 l -0.12823,0.0383 q -0.0472,-0.24637 0.0629,-0.47176 0.11008,-0.22539 0.31854,-0.44998 0.21855,-0.25402 0.28871,-0.41086 0.44114,-0.99996 0.27343,-2.14267 -0.027,-0.30523 -0.3431,-1.35076 l -0.32577,-1.0653 q 0.0407,-0.16693 0.25,-0.48989 0.20927,-0.32297 0.34757,-0.39071 0.15807,-0.0774 0.34192,0.29798 0.30965,0.63225 0.74025,2.11164 0.45036,1.46972 0.80839,2.20075 0.33868,0.69152 0.76003,0.9016 0.41168,0.19032 1.13142,0.009 -0.13305,-0.57176 0.12865,-1.28786 0.27178,-0.74553 0.76572,-0.98745 0.13831,-0.0677 0.17701,0.0113 0.0677,0.1383 -0.0823,0.43224 -0.15,0.29394 -0.17017,0.35281 -0.0206,0.10806 -0.0125,0.32458 0.008,0.21653 -0.002,0.29515 -0.11938,1.35681 -1.28508,1.92773 z m 8.59016,-8.07901 q 0.10058,0.14443 -0.10963,0.61253 l -0.21021,0.46809 q -0.0767,0.42876 -0.20216,0.86462 -0.10737,0.42328 -0.25245,0.7924 -0.12703,0.35655 -0.39462,0.70375 -0.24953,0.33462 -0.62866,0.59864 -0.83047,0.57832 -1.94623,0.63148 -1.11028,0.0225 -1.9217,-0.5652 l -0.99678,-0.69992 q 0.0654,0.51743 -0.28116,1.48262 -0.32854,0.95263 -0.74378,1.24179 -0.0181,0.0126 -0.0542,0.0377 -0.0667,0.0197 -0.0848,0.0322 -0.13443,-0.30853 0.13542,-0.84496 0.27533,-0.56706 0.29887,-0.61026 0.11833,-0.48453 -0.0257,-1.26889 -0.13699,-0.73568 -0.64858,-1.58582 -0.50611,-0.88076 -0.6083,-1.10449 l -0.54317,-1.20347 -1.25301,-2.80024 q -0.71531,-1.56615 0.11516,-2.14448 0.14443,-0.10057 0.24501,0.0439 0.49032,0.70409 0.89132,1.8189 0.41906,1.10223 0.63697,1.91561 0.52743,-0.47453 1.13965,-0.98129 0.6177,-0.53739 1.34372,-1.15022 0.74407,-0.62539 1.17027,-0.97581 0.0903,-0.0629 0.39009,-0.32527 0.29983,-0.26241 0.46231,-0.37556 0.21665,-0.15086 0.27951,-0.0606 0.0754,0.10833 -0.0696,0.47745 -0.14509,0.36912 -0.25889,0.47518 l -4.12143,3.5135 q 0.2263,0.32497 0.5651,1.08096 0.34428,0.72537 0.57058,1.05034 0.11315,0.16248 0.67956,0.70636 1.13281,1.08775 2.471,1.46949 1.33819,0.38174 2.51168,-0.43546 0.18054,-0.12572 0.49168,-1.33432 0.31662,-1.23922 0.78601,-1.5661 0.10833,-0.0754 0.17119,0.0148 z m 4.86366,-8.90828 0.0589,0.0298 q 0.21582,0.10948 0.18255,0.75865 -0.11402,1.0029 -0.19876,2.04533 -0.10436,1.03248 -0.37705,2.25092 -0.25307,1.2284 -0.64121,1.99359 -0.66681,1.31455 -1.72146,1.64297 -1.04471,0.30881 -2.50769,-0.21127 0.0677,0.20701 0.16464,0.45354 0.0873,0.21696 0.18397,0.51268 0.087,0.26616 0.12483,0.53202 0.0478,0.24625 0.0364,0.51184 -0.0114,0.26558 -0.1109,0.46178 -0.0597,0.11772 -0.10919,0.16663 -0.22521,-0.18824 -0.2434,-0.44416 -0.008,-0.27553 -0.0953,-0.54168 -0.0771,-0.28578 -0.21298,-0.60141 -0.14559,-0.3452 -0.19364,-0.54225 l -0.14331,-0.73875 q -0.0191,-0.10833 -0.22464,-0.28662 -0.43079,-0.36653 -0.73277,-0.88974 -0.8667,-1.54971 -0.45155,-3.58395 0.14189,-0.71742 0.77884,-1.97311 0.21895,-0.43165 0.358,-0.65714 0.13904,-0.22549 0.40633,-0.50927 0.24767,-0.29373 0.58236,-0.32131 0.31506,-0.0375 0.68784,0.15156 0.82405,0.41799 1.08451,1.31483 0.18369,0.56188 0.18,1.20139 -0.0233,0.62955 -0.19393,1.20906 -0.17061,0.5795 -0.41032,1.19796 -0.23971,0.61847 -0.52804,1.13826 -0.28833,0.51979 -0.53743,1.05949 0.91305,0.3398 1.95776,0.031 1.05466,-0.32843 1.4826,-1.1721 0.38814,-0.76518 0.63013,-1.77719 0.24198,-1.012 0.32586,-1.90685 0.0643,-0.90481 0.18796,-1.87814 0.0219,-0.38359 0.11147,-0.56017 0.0199,-0.0392 0.10862,-0.0682 z m -4.39692,1.51928 q -0.54936,-0.27867 -0.91504,0.005 -0.37534,0.25364 -0.69381,0.88148 l -0.50757,1.00063 q -0.53742,1.05949 -0.27781,2.10391 0.24994,1.01485 1.28981,1.54232 l 1.35408,-2.76673 q 0.23886,-0.47088 0.33895,-0.76547 0.11004,-0.31421 0.17146,-0.72708 0.0614,-0.41288 -0.12369,-0.7288 -0.20473,-0.32586 -0.63638,-0.54481 z"
       id="text3"
       style="font-size:22px;line-height:1.25;font-family:UnPilgi;-inkscape-font-specification:UnPilgi;text-align:center;letter-spacing:0px;word-spacing:0px;text-anchor:middle;stroke-width:0.264583"
       aria-label="Suite" />
    <text
       xml:space="preserve"
       transform="scale(0.26458333)"
       id="text21"
       style="font-family:'STIX Math';font-size:45.35433071px;line-height:1.25;letter-spacing:6px;word-spacing:0px;text-align:center;-inkscape-font-specification:'STIX Math, Normal';writing-mode:lr;white-space:pre;shape-inside:url(#rect21)" />
    <text
       xml:space="preserve"
       transform="matrix(0.26458333,0,0,0.26458333,-14.3039,-7.7759231)"
       id="text28"
       style="font-size:45.3543px;line-height:1.25;font-family:'STIX Math';-inkscape-font-specification:'STIX Math, Normal';text-align:center;letter-spacing:6px;word-spacing:0px;writing-mode:lr-tb;white-space:pre;shape-inside:url(#rect28)"><tspan
         x="508.79953"
         y="653.53853"
         id="tspan1">v2.0</tspan></text>
  </g>
</svg>
